<svg xmlns="http://www.w3.org/2000/svg" viewBox="0 0 398.74 767.33"><defs><style>.cls-1{fill:#efefef;}.cls-2,.cls-8{fill:none;stroke:#908065;stroke-miterlimit:10;}.cls-2{stroke-width:1.24px;}.cls-3{font-size:17.42px;font-family:Roboto-Light, Roboto;}.cls-3,.cls-6,.cls-9{fill:#908065;}.cls-4{letter-spacing:0.02em;}.cls-5{letter-spacing:-0.01em;}.cls-6{font-size:27.38px;font-family:Roboto-Regular, Roboto;}.cls-7{letter-spacing:-0.01em;}.cls-8{stroke-width:1.24px;}</style></defs><title>aires</title><g id="Capa_2" data-name="Capa 2"><g id="proyectos_ejecutados" data-name="proyectos ejecutados"><g id="Proyectos_en_venta" data-name="Proyectos en venta"><rect class="cls-1" width="398.74" height="767.33"/><rect class="cls-2" x="22.67" y="26.48" width="353.4" height="715.8"/><text class="cls-3" transform="translate(46.84 82.82)">Viña del Mar</text><text class="cls-3" transform="translate(229.45 665.19)">Depa<tspan class="cls-4" x="39.39" y="0">r</tspan><tspan x="45.68" y="0">tamen</tspan><tspan class="cls-5" x="94.62" y="0">t</tspan><tspan x="100.04" y="0">os</tspan></text><text class="cls-6" transform="translate(230.22 702.52)">2-3 Dorm.</text><text class="cls-6" transform="translate(46.84 112.69)"><tspan class="cls-7">E</tspan><tspan x="15.31" y="0">dificio Ai</tspan><tspan class="cls-7" x="121.4" y="0">r</tspan><tspan x="130.41" y="0">es</tspan></text><polyline class="cls-8" points="80.31 127.9 217.41 127.9 217.41 79.36 148.97 79.36"/><polygon class="cls-9" points="62.41 714.79 61.84 194.73 61.84 194.47 62.02 194.27 111.64 140.68 112.01 140.27 112.5 140.53 194.74 182.28 195.16 182.49 195.16 182.97 195.17 205.18 194.72 204.47 321.61 261.93 322.83 262.49 321.78 263.33 308.72 273.79 308.34 274.09 307.88 273.91 128.82 200.78 129.72 200.66 80.87 239.85 81.2 239.16 81.2 261.38 79.81 260.66 126.05 228 126.42 227.73 126.86 227.9 321.55 302.31 322.94 302.84 321.71 303.69 304.5 315.52 304.18 315.74 303.81 315.61 123 251.97 123.55 251.9 84.34 278.6 84.58 278.13 84.87 300.3 84.05 299.84 124.77 275.88 124.97 275.76 125.19 275.83 321.38 340.06 322.18 340.31 321.45 340.73 300.18 352.87 300.05 352.95 299.9 352.9 123.73 301.51 123.97 301.48 88.44 323.37 88.59 323.09 88.91 348 88.41 347.71 124.86 327.04 124.98 326.97 125.12 327 321.38 378.86 322.42 379.13 321.49 379.67 303.27 390.31 303.12 390.4 302.94 390.37 125.21 350.65 125.57 350.61 89.43 368.55 89.75 368.05 89.76 393.57 88.92 393.05 125.06 374.5 125.25 374.4 125.46 374.44 322.94 415.93 324.45 416.25 323.25 417.23 305.9 431.28 305.54 429.95 363 438.68 363.67 438.78 363.67 439.46 363.68 450.38 363.68 450.96 363.12 451.14 337.34 459.47 337.15 459.53 336.95 459.49 124.06 423.76 124.52 423.72 90.86 435.53 91.49 434.65 91.5 459.13 90.28 458.22 124.81 447.72 125.01 447.66 125.21 447.69 356.45 478.22 357.47 478.35 357.34 479.37 356.46 485.93 356.41 486.37 356.04 486.63 341.18 497.13 340.86 497.35 340.46 497.31 125.84 471.97 126.22 471.94 92.13 480.68 92.91 479.67 92.91 503.71 91.62 502.7 125.72 494.4 125.88 494.36 126.05 494.37 355.53 514.07 356.52 514.15 356.45 515.14 356.02 522.13 355.99 522.59 355.63 522.87 339.89 535.11 339.59 535.34 339.2 535.32 124.15 520.78 124.34 520.77 93.3 525.12 94.05 524.26 94.04 547.42 93.07 546.57 125.42 542.66 125.49 542.65 125.56 542.65 355.91 552.87 356.61 552.9 356.56 553.59 356.12 560.14 356.1 560.44 355.87 560.62 341 572.85 340.82 573 340.57 573 125.08 569.36 125.12 569.35 94.52 571.52 94.98 571.03 94.96 596.38 94.48 595.91 355.01 591.41 355.16 591.41 355.17 591.56 355.6 598.12 355.6 598.2 355.54 598.25 340.22 610.03 340.27 609.93 340.25 630.48 340.05 630.48 340.02 609.93 340.02 609.87 340.07 609.83 355.35 598.01 355.3 598.14 354.85 591.58 355.01 591.73 94.5 596.86 94.02 596.86 94.01 596.38 94 571.03 94 570.57 94.45 570.54 125.05 568.33 125.07 568.33 125.09 568.33 340.6 571.68 340.16 571.83 355.02 559.58 354.77 560.05 355.21 553.5 355.85 554.22 125.49 544.33 125.63 544.32 93.28 548.28 92.32 548.39 92.32 547.42 92.3 524.26 92.3 523.5 93.06 523.39 124.09 519 124.18 518.99 124.27 518.99 339.34 533.3 338.65 533.51 354.39 521.27 354 522.01 354.44 515.01 355.36 516.08 125.87 496.44 126.21 496.42 92.11 504.72 90.83 505.04 90.83 503.71 90.82 479.67 90.82 478.86 91.61 478.66 125.7 469.91 125.89 469.87 126.08 469.89 340.7 495.25 339.99 495.44 354.85 484.95 354.43 485.65 355.3 479.1 356.19 480.25 124.96 449.58 125.36 449.55 90.83 460.03 89.61 460.4 89.61 459.13 89.62 434.65 89.62 433.98 90.25 433.76 123.91 421.97 124.13 421.89 124.37 421.93 337.22 457.88 336.84 457.91 362.63 449.63 362.08 450.38 362.09 439.46 362.76 440.24 305.32 431.44 303.63 431.18 304.96 430.11 322.32 416.08 322.63 417.38 125.21 375.63 125.61 375.58 89.45 394.08 88.6 394.51 88.6 393.57 88.62 368.05 88.62 367.7 88.93 367.55 125.09 349.64 125.26 349.56 125.45 349.6 303.14 389.48 302.81 389.53 321.04 378.9 321.15 379.72 124.94 327.68 125.2 327.65 88.74 348.29 88.25 348.57 88.24 348 87.95 323.1 87.95 322.91 88.1 322.82 123.66 300.96 123.77 300.89 123.9 300.93 300.1 352.21 299.82 352.24 321.08 340.08 321.15 340.76 124.87 276.79 125.28 276.75 84.6 300.78 83.79 301.26 83.78 300.32 83.45 278.14 83.45 277.84 83.7 277.67 122.86 250.9 123.12 250.73 123.41 250.83 304.32 314.16 303.63 314.26 320.82 302.4 320.99 303.78 126.24 229.52 127.05 229.41 80.82 262.1 79.43 263.08 79.43 261.38 79.43 239.16 79.43 238.74 79.76 238.47 128.6 199.26 129.01 198.93 129.5 199.13 308.51 272.37 307.68 272.49 320.75 262.04 320.93 263.44 194.07 205.89 193.61 205.69 193.61 205.18 193.62 182.97 194.04 183.66 111.84 141.83 112.71 141.68 63.01 195.19 63.19 194.73 62.61 714.79 62.41 714.79"/></g></g></g></svg>