<svg xmlns="http://www.w3.org/2000/svg" viewBox="0 0 397.01 767.33"><defs><style>.cls-1{fill:#efefef;}.cls-2{font-size:17.42px;font-family:Roboto-Light, Roboto;}.cls-12,.cls-2,.cls-8{fill:#908065;}.cls-3{letter-spacing:-0.01em;}.cls-4{letter-spacing:-0.02em;}.cls-5{letter-spacing:-0.02em;}.cls-6{letter-spacing:0.02em;}.cls-7{letter-spacing:-0.01em;}.cls-8{font-size:27.38px;font-family:Roboto-Regular, Roboto;}.cls-9{letter-spacing:-0.02em;}.cls-10{letter-spacing:-0.01em;}.cls-11,.cls-13,.cls-14{fill:none;stroke-miterlimit:10;}.cls-11,.cls-14{stroke:#908065;}.cls-11,.cls-13{stroke-width:1.24px;}.cls-13{stroke:#fff;}.cls-14{stroke-width:1.24px;}</style></defs><title>baron</title><g id="Capa_2" data-name="Capa 2"><g id="proyectos_ejecutados" data-name="proyectos ejecutados"><g id="Proyectos_en_venta" data-name="Proyectos en venta"><rect class="cls-1" width="397.01" height="767.33"/><text class="cls-2" transform="translate(47.44 68.41)"><tspan class="cls-3">E</tspan><tspan x="9.75" y="0">dificio | </tspan><tspan class="cls-4" x="67.96" y="0">V</tspan><tspan x="78.31" y="0">alpa</tspan><tspan class="cls-5" x="110.53" y="0">r</tspan><tspan x="116.05" y="0">aíso</tspan></text><text class="cls-2" transform="translate(237.29 636.85)">Depa<tspan class="cls-6" x="39.39" y="0">r</tspan><tspan x="45.68" y="0">tamen</tspan><tspan class="cls-7" x="94.62" y="0">t</tspan><tspan x="100.04" y="0">os</tspan></text><text class="cls-8" transform="translate(215.13 674.18)">1-2-3 Dorm.<tspan x="-27.66" y="32.85">Loft &amp; Dúplex.</tspan></text><text class="cls-8" transform="translate(47.44 98.28)">Mi<tspan class="cls-9" x="30.54" y="0">r</tspan><tspan x="39.27" y="0">ador Ba</tspan><tspan class="cls-10" x="133.19" y="0">r</tspan><tspan x="142.19" y="0">ón</tspan></text><polyline class="cls-11" points="80.91 113.48 235.44 113.48 235.44 64.95 207.44 64.95"/><path class="cls-11" d="M80.12,384.5"/><path class="cls-12" d="M94.68,273.61l.25,21.08.15,21.08v.46h-.46l-13.7,0,.5-.5,0,16.05,0,16.05c0,10.7-.13,21.4-.2,32.1l-.21-.31,9.39,3.76h-.16c11.49-2.76,23-5.51,34.44-8.4l34.39-8.57,34.39-8.59,34.41-8.48.15,0,.15,0,26.41,5.68L281,360.85l26.38,5.82c8.8,1.92,17.57,3.94,26.36,5.92l0,.12c-8.82-1.8-17.66-3.54-26.47-5.4l-26.45-5.5-26.44-5.52-26.42-5.63h.29L193.77,359l-34.47,8.24-34.47,8.26c-11.5,2.73-23,5.58-34.43,8.43l-.08,0-.08,0-9.45-3.62-.21-.08V380c-.07-10.7-.2-21.4-.2-32.1l0-16.05,0-16.05v-.5h.5l13.7,0-.46.46.15-21.08.25-21.08Z"/><path class="cls-12" d="M94,382.78l.2,16,.13,16v.39h-.4l-13,.08.48-.48.08,32,0,16-.12,16-.35-.39q31.9,3.16,63.85,5.7l63.91,4.93,31.95,2.58c10.65.9,21.3,1.73,31.94,2.7,21.28,1.9,42.57,3.69,63.84,5.74V500c-21.32-1.44-42.62-3.15-63.93-4.73-10.66-.78-21.3-1.69-32-2.54l-31.94-2.66-63.86-5.55c-10.64-.94-21.27-2-31.92-2.89S91.53,479.86,80.88,479l-.35,0v-.36l-.12-16,0-16,.08-32v-.48h.47l13,.08-.39.39.13-16,.2-16Z"/><path class="cls-12" d="M133.47,483.39c.24,9,.55,18.06.74,27.1v.33l-.34,0c-10,.46-20.08.92-30.13,1.32s-20.08.87-30.13,1.21l.52-.54q.1,13.71.08,27.42v.41h-.4l-25.35,0c-8.45.06-16.9.06-25.35.2l.22-.22.36,19.79-.19-.27,43.56,15.68c14.5,5.28,29,10.49,43.5,15.85l21.73,8L154,607.81c14.46,5.4,28.92,10.79,43.33,16.31l0,.12c-14.57-5.1-29.09-10.33-43.61-15.55l-21.79-7.82-21.75-7.94c-14.51-5.26-29-10.67-43.44-16L23.31,560.74l-.19-.07v-.2l-.21-19.79v-.22h.22c8.45,0,16.9-.15,25.35-.24l25.35-.39-.4.41q-.22-13.71-.35-27.41v-.52l.52,0c10-.44,20.09-.75,30.13-1.13s20.09-.69,30.14-1l-.33.35c-.11-9-.12-18.07-.18-27.11Z"/><path class="cls-12" d="M227.33,490.48q-.37-7.93-.63-15.87t-.48-15.87c-.14-5.29-.29-10.58-.36-15.88s-.13-10.59-.17-15.88l.4.36c-12.11.59-24.2,1.41-36.29,2.35s-24.17,1.92-36.26,2.76c-6,.44-12.09.87-18.14,1.25s-12.09.81-18.15,1.15c-12.1.72-24.21,1.39-36.32,1.92v-.12c12.08-1.09,24.16-2,36.25-2.95,6-.48,12.09-.86,18.14-1.29s12.09-.82,18.15-1.18c12.1-.78,24.2-1.42,36.31-2.11S214,427.64,226,426.6l.38,0v.4c.18,5.29.39,10.58.5,15.87s.22,10.58.31,15.88.16,10.59.19,15.88.06,10.59,0,15.88Z"/><path class="cls-12" d="M228,210.95c-.22-8.52-.32-17-.41-25.57l-.06-12.79c0-4.26,0-8.52,0-12.79l.77.47c-6.14,3.13-12.33,6.17-18.5,9.25s-12.32,6.19-18.43,9.39l-36.62,19.25-18.36,9.53L118,217.12c-12.31,6.21-24.63,12.42-37,18.44l-.06-.11c12.12-6.59,24.33-13,36.54-19.41l18.37-9.51,18.43-9.39,37-18.6c6.15-3.11,12.26-6.32,18.36-9.53s12.16-6.5,18.28-9.67l.77-.4v.87c0,4.26,0,8.52,0,12.79l-.06,12.79c-.09,8.52-.19,17-.41,25.57Z"/><path class="cls-12" d="M373.35,55.4q-24.88,15.42-49.81,30.76l-49.89,30.63-25,15.29-25,15.19-50,30.38-.11.07-.13,0-32.78-7.78.15,0-6,2.8.12-.19c-.11,11.81-.09,23.62-.14,35.43v.16l-.14.07-22.3,10.53-.07,0h-.08l-33.53-2,.41-.39.17,63.48-.8-.51,74.69-34.47,37.34-17.23,37.39-17.13.17-.08.18,0L281,223.81l52.76,13.47,0,.12L280.8,224.47l-52.87-13,.34,0L191,228.72l-37.36,17.2-74.72,34.4-.8.37v-.88l.17-63.48v-.42l.41,0,33.52,2.18-.15,0,22.35-10.43-.14.22c.07-11.81.21-23.62.22-35.43v-.13l.12-.06,6-2.83.07,0,.08,0,32.82,7.6-.24,0,49.89-30.64,24.94-15.32,25-15.21,50-30.38q25-15.23,50.12-30.26Z"/><path class="cls-12" d="M336.37,480.81c-.39-30.86-.43-61.71-.49-92.57s.42-61.71.36-92.57l-.37-92.57q-.14-46.28,0-92.57l.86.51L300,130.63l-18.37,9.78-18.41,9.71-.06-.11L281.35,140l18.27-10L336.15,110l.86-.47v1q.15,46.28,0,92.57l-.37,92.57c-.06,30.86.39,61.71.36,92.57s-.1,61.71-.49,92.57Z"/><path class="cls-12" d="M78.63,336.11c12.24-4.45,24.55-8.67,36.87-12.86q4.61-1.59,9.25-3.11c3.09-1,6.17-2.06,9.27-3l18.58-6c12.39-4,24.66-8.33,37-12.58s24.61-8.48,36.94-12.65l.85-.29,0,.9.31,15.88c.12,5.29.15,10.59.23,15.88l.16,15.88.05,15.88H228l-.61-15.87-.51-15.87c-.14-5.29-.33-10.58-.44-15.87l-.36-15.88.87.61q-18.52,6.17-37.1,12.18c-12.38,4-24.78,8-37.07,12.25L134.33,318c-3.07,1.09-6.16,2.11-9.23,3.16s-6.16,2.09-9.26,3.1c-12.36,4.09-24.73,8.13-37.17,12Z"/><path class="cls-13" d="M135.93,596.63"/><rect class="cls-14" x="21.8" y="25.51" width="353.4" height="716.76"/><path class="cls-12" d="M138.95,602.82q-.36-10.11-.43-20.22c-.06-6.74-.1-13.48.05-20.22l.2-10.11c0-3.37.08-6.74,0-10.11,0-6.74-.19-13.48-.27-20.22v-.44l.45,0,24.1-1.4c8-.47,16.07-.83,24.11-1.24s16.08-.71,24.12-1.06,16.08-.61,24.13-.84v.12q-12,.88-24.09,1.63c-8,.47-16.06,1-24.1,1.41s-16.07.89-24.11,1.24L139,522.42l.45-.47c-.08,6.74-.26,13.48-.27,20.22,0,3.37,0,6.74,0,10.11l.2,10.11c.15,6.74.12,13.48.05,20.22s-.19,13.48-.43,20.22Z"/></g></g></g></svg>