<?xml version="1.0" encoding="utf-8"?>
<!-- Generator: Adobe Illustrator 21.1.0, SVG Export Plug-In . SVG Version: 6.00 Build 0)  -->
<svg version="1.1" id="Capa_1" xmlns="http://www.w3.org/2000/svg" xmlns:xlink="http://www.w3.org/1999/xlink" x="0px" y="0px"
	 viewBox="0 0 250 250" style="enable-background:new 0 0 250 250;" xml:space="preserve">
<style type="text/css">
	.st0{fill:#FFFFFF;}
</style>
<g>
	<path class="st0" d="M144.7,250H90.9V137.9H61.3V86.4h29.6V57.5C90.9,31,107.5,0,154.3,0c16.5,0,28.6,1.5,29.1,1.6l5,0.6l-1.2,48.2
		l-5.5-0.1c0,0-12.3-0.1-25.7-0.1c-10,0-11.3,2.5-11.3,12.3v23.9h44.1l-2.4,51.5h-41.6L144.7,250L144.7,250z M102,238.9h31.5V126.8
		h42.1l1.4-29.2h-43.5v-35c0-11.6,2.7-23.4,22.4-23.4c7.9,0,15.5,0,20.3,0.1l0.7-27.1c-4.9-0.4-13.1-1-22.7-1
		c-38.5,0-52.3,24-52.3,46.4v40H72.4v29.2H102L102,238.9L102,238.9z M102,238.9"/>
</g>
</svg>
