<?xml version="1.0" encoding="utf-8"?>
<!-- Generator: Adobe Illustrator 20.1.0, SVG Export Plug-In . SVG Version: 6.00 Build 0)  -->
<svg version="1.1" id="Capa_1" xmlns="http://www.w3.org/2000/svg" xmlns:xlink="http://www.w3.org/1999/xlink" x="0px" y="0px"
	 viewBox="0 0 18.1 18.1" style="enable-background:new 0 0 18.1 18.1;" xml:space="preserve">
<style type="text/css">
	.st0{fill:#908065;}
</style>
<title>IG_icon</title>
<g id="Capa_2">
	<g id="footer">
		<path class="st0" d="M14.8,17.5h-3.7V9.7H9V6.2h2.1v-2c0-1.8,1.2-4,4.4-4c0.7,0,1.3,0,2,0.1h0.3l-0.1,3.4h-2.2
			c-0.7,0-0.8,0.2-0.8,0.9v1.6h3.1l-0.2,3.6h-2.8L14.8,17.5L14.8,17.5z M11.8,16.7H14V9h2.9l0.1-2h-3V4.5c0-0.8,0.2-1.6,1.6-1.6H17
			V1c-0.3,0-0.9-0.1-1.6-0.1c-2.6,0-3.6,1.7-3.6,3.2v2.8H9.8v2h2.1V16.7z"/>
	</g>
</g>
</svg>
