<?xml version="1.0" encoding="utf-8"?>
<!-- Generator: Adobe Illustrator 21.1.0, SVG Export Plug-In . SVG Version: 6.00 Build 0)  -->
<svg version="1.1" id="Capa_1" xmlns="http://www.w3.org/2000/svg" xmlns:xlink="http://www.w3.org/1999/xlink" x="0px" y="0px"
	 viewBox="0 0 250 250" style="enable-background:new 0 0 250 250;" xml:space="preserve">
<style type="text/css">
	.st0{fill:#FFFFFF;}
</style>
<g>
	<path class="st0" d="M411.6,250.6h-53.8V138.5h-29.6V87h29.6V58.1c0-26.5,16.6-57.5,63.4-57.5c16.5,0,28.6,1.5,29.1,1.6l5,0.6
		L454.1,51l-5.5-0.1c0,0-12.3-0.1-25.7-0.1c-10,0-11.3,2.5-11.3,12.3V87h44.1l-2.4,51.5h-41.6L411.6,250.6L411.6,250.6z
		 M368.9,239.4h31.5V127.3h42.1l1.4-29.2h-43.5v-35c0-11.6,2.7-23.4,22.4-23.4c7.9,0,15.5,0,20.3,0.1l0.7-27.1
		c-4.9-0.4-13.1-1-22.7-1c-38.5,0-52.3,24-52.3,46.4v40h-29.6v29.2h29.6L368.9,239.4L368.9,239.4z M368.9,239.4"/>
</g>
<g>
	<g>
		<path class="st0" d="M190.5,250.6H58.9c-32.6,0-59.2-26.6-59.2-59.2V59.8c0-32.6,26.6-59.2,59.2-59.2h131.6
			c32.6,0,59.2,26.6,59.2,59.2v131.6C249.7,224,223.1,250.6,190.5,250.6z M58.9,14.5c-25,0-45.3,20.3-45.3,45.3v131.6
			c0,25,20.3,45.3,45.3,45.3h131.6c25,0,45.3-20.3,45.3-45.3V59.8c0-25-20.3-45.3-45.3-45.3H58.9z"/>
	</g>
	<g>
		<path class="st0" d="M125,173.8c-31.5,0-57.1-23.2-57.1-51.8S93.5,70.2,125,70.2s57.1,23.2,57.1,51.8S156.5,173.8,125,173.8z
			 M125,82.8c-23.8,0-43.2,17.6-43.2,39.2s19.4,39.2,43.2,39.2s43.2-17.6,43.2-39.2S148.8,82.8,125,82.8z"/>
	</g>
	<g>
		<circle class="st0" cx="197.8" cy="52.4" r="17.8"/>
	</g>
</g>
</svg>
