<svg xmlns="http://www.w3.org/2000/svg" viewBox="0 0 18.11 18.11"><defs><style>.cls-1{fill:#908065;}</style></defs><title>IG_icon</title><g id="Capa_2" data-name="Capa 2"><g id="footer"><path class="cls-1" d="M13.82,18.11H4.29A4.29,4.29,0,0,1,0,13.82V4.29A4.29,4.29,0,0,1,4.29,0h9.53a4.29,4.29,0,0,1,4.29,4.29v9.53A4.29,4.29,0,0,1,13.82,18.11ZM4.29,1A3.28,3.28,0,0,0,1,4.29v9.53A3.28,3.28,0,0,0,4.29,17.1h9.53a3.28,3.28,0,0,0,3.28-3.28V4.29A3.28,3.28,0,0,0,13.82,1Z"/><path class="cls-1" d="M9.08,12.55A4,4,0,0,1,4.94,8.8,4,4,0,0,1,9.08,5,4,4,0,0,1,13.21,8.8,4,4,0,0,1,9.08,12.55ZM9.08,6A3,3,0,0,0,6,8.8a3,3,0,0,0,3.13,2.84A3,3,0,0,0,12.21,8.8,3,3,0,0,0,9.08,6Z"/><circle class="cls-1" cx="14.35" cy="3.76" r="1.29"/></g></g></svg>