<svg xmlns="http://www.w3.org/2000/svg" viewBox="0 0 165.3 51.72"><defs><style>.cls-1{fill:#fff;}</style></defs><title>logo</title><g id="Capa_2" data-name="Capa 2"><g id="Capa_1-2" data-name="Capa 1"><path class="cls-1" d="M27.62,17.84.39,28.17v-8L27.62,8Zm.65-16.75,20,26.34v3l-20-23.29ZM48.7,31.42V27.3L28.28,0h-.65V7.14L0,20v8.79L27.62,18.45V28.88L48.31,40.75v5.07L28.06,38.16l-.08,0L0,42v4.49l27.62-2.11.18,7.37h.28l.13-8.07L.39,46.15v-4l27.52-3.39L48.7,46.25V40.67L28.28,28.51V18.45l13,11.6v-.31l-13-11.9V8Z"/><path class="cls-1" d="M73.87,22.12l-3-3.92-.7-.93h0a10.48,10.48,0,0,1,0,1.06v3.78H68.47V14.68h1.73l2.89,3.76c.24.31.45.59.67.9h0c0-.38,0-.93,0-1.22V14.68h1.73v7.44Z"/><path class="cls-1" d="M81.42,20.89a3.29,3.29,0,0,1-.36-1.61v-4.6h1.73v4.49a1.93,1.93,0,0,0,.23,1,1.73,1.73,0,0,0,2.71,0,1.94,1.94,0,0,0,.23-1V14.68h1.73v4.6a3.29,3.29,0,0,1-.36,1.61,3.9,3.9,0,0,1-5.89,0"/><polygon class="cls-1" points="93.27 14.68 97.74 14.68 97.3 16.14 94.99 16.14 94.99 17.64 97.33 17.64 97.33 19.1 94.99 19.1 94.99 20.67 97.71 20.67 97.71 22.12 93.27 22.12 93.27 14.68"/><path class="cls-1" d="M102.33,14.68h1.85l1.42,3.71c.2.52.37,1,.52,1.43h0c.15-.43.32-.91.52-1.43l1.42-3.71h1.85l-3.06,7.5h-1.49Z"/><path class="cls-1" d="M118.28,19l-.35-1c-.17-.51-.26-.82-.32-1.06h0a8.56,8.56,0,0,1-.35,1.07l-.37,1Zm-1.42-4.32h1.42l3.08,7.47h-1.85l-.71-1.77h-2.42l-.68,1.77h-1.77Z"/><path class="cls-1" d="M74.69,34.6a5.19,5.19,0,0,1-2.56.63,3.55,3.55,0,0,1-3.91-3.76,3.84,3.84,0,0,1,4.1-3.87,5.35,5.35,0,0,1,2,.35v1.58a4.22,4.22,0,0,0-2-.5,2.2,2.2,0,0,0-2.3,2.42,2.18,2.18,0,0,0,2.28,2.35,3.44,3.44,0,0,0,1.87-.55Z"/><path class="cls-1" d="M85.38,31.42c0-1.58-.82-2.38-2-2.38s-2,.8-2,2.38.82,2.38,2,2.38,2-.8,2-2.38m-5.84,0a3.84,3.84,0,0,1,7.68,0,3.84,3.84,0,0,1-7.68,0"/><path class="cls-1" d="M92.9,33.24a3,3,0,0,0,1.72.56c.51,0,1.06-.17,1.06-.66,0-1.23-3.16-1.07-3.16-3.36a2.29,2.29,0,0,1,2.56-2.18A4.51,4.51,0,0,1,97,28v1.55A4.3,4.3,0,0,0,95.13,29c-.42,0-.78.15-.78.6,0,1.15,3.16,1,3.16,3.37,0,1.38-1.24,2.24-2.83,2.24a4.29,4.29,0,0,1-2.44-.7Z"/><polygon class="cls-1" points="104.89 29.14 102.71 29.14 102.71 27.68 108.96 27.68 108.52 29.14 106.61 29.14 106.61 35.12 104.89 35.12 104.89 29.14"/><path class="cls-1" d="M117.28,32l-.35-1c-.17-.51-.26-.82-.32-1.06h0a8.47,8.47,0,0,1-.35,1.07l-.37,1Zm-1.42-4.32h1.42l3.08,7.47h-1.85l-.71-1.77h-2.42l-.68,1.77h-1.77Z"/><path class="cls-1" d="M130.59,35.12l-3-3.92-.7-.93h0a10.47,10.47,0,0,1,0,1.06v3.78h-1.73V27.68h1.73l2.89,3.76c.24.31.45.59.67.9h0c0-.38,0-.93,0-1.22V27.68h1.73v7.44Z"/><polygon class="cls-1" points="137.84 27.68 142.31 27.68 141.87 29.14 139.56 29.14 139.56 30.64 141.9 30.64 141.9 32.1 139.56 32.1 139.56 33.67 142.28 33.67 142.28 35.12 137.84 35.12 137.84 27.68"/><path class="cls-1" d="M150,31a1.34,1.34,0,0,0,.68-.15.91.91,0,0,0,.45-.82.93.93,0,0,0-.52-.86,1.34,1.34,0,0,0-.6-.11h-.55V31Zm-2.27-3.33h2.39a4.11,4.11,0,0,1,1.54.25,2,2,0,0,1-.16,3.83v0a3.47,3.47,0,0,1,.95,1.23l1.17,2.11h-2l-.9-1.69c-.38-.72-.63-1-.8-1h-.5v2.72h-1.73Z"/><path class="cls-1" d="M162.22,32l-.35-1c-.17-.51-.26-.82-.32-1.06h0a8.56,8.56,0,0,1-.35,1.07l-.37,1Zm-1.42-4.32h1.42l3.08,7.47h-1.85l-.71-1.77h-2.42l-.68,1.77h-1.77Z"/><rect class="cls-1" x="68.96" y="41.45" width="0.96" height="4.13"/><path class="cls-1" d="M75.4,45.59l-1.52-2-.35-.47h0a5.26,5.26,0,0,1,0,.54v1.92h-.88V41.81h.88L75,43.72c.12.15.23.3.34.46h0c0-.19,0-.47,0-.62V41.81h.88v3.77Z"/><path class="cls-1" d="M79.08,41.81h.79l.94,1.32c.11.16.21.3.29.45h0a4.77,4.77,0,0,1,.28-.48l.85-1.29H83v3.77h-.88V43.66c0-.14,0-.29,0-.41h0c0,.08-.19.3-.25.4l-.61.93h-.38l-.7-1a3.37,3.37,0,0,1-.25-.37h0c0,.13,0,.28,0,.38v2h-.88Z"/><path class="cls-1" d="M88.72,43.71c0-.8-.42-1.21-1-1.21s-1,.41-1,1.21.42,1.21,1,1.21,1-.41,1-1.21m-3,0a1.95,1.95,0,1,1,1.95,1.94,1.85,1.85,0,0,1-1.95-1.94"/><path class="cls-1" d="M93.62,44.88c.42,0,.6-.14.6-.45S94,44,93.7,44h-.44v.84Zm-.1-1.55a.4.4,0,0,0,.46-.39c0-.22-.15-.41-.48-.41h-.24v.8Zm-1.14-1.51h1.27c.82,0,1.19.48,1.19,1a.86.86,0,0,1-.43.75h0a.9.9,0,0,1,.69.9,1.22,1.22,0,0,1-1.35,1.15H92.38Z"/><rect class="cls-1" x="97.76" y="41.81" width="0.88" height="3.77"/><polygon class="cls-1" points="101.5 41.81 102.38 41.81 102.38 44.85 103.67 44.85 103.67 45.59 101.5 45.59 101.5 41.81"/><rect class="cls-1" x="106.2" y="41.81" width="0.88" height="3.77"/><path class="cls-1" d="M111.73,44l-.18-.52c-.09-.26-.13-.42-.16-.54h0a4.4,4.4,0,0,1-.18.54L111,44ZM111,41.8h.72l1.56,3.79h-.94l-.36-.9h-1.23l-.34.9h-.9Z"/><path class="cls-1" d="M116.89,43.5a.68.68,0,0,0,.34-.07.46.46,0,0,0,.23-.42.47.47,0,0,0-.26-.43.68.68,0,0,0-.3-.06h-.28v1Zm-1.15-1.69H117a2.09,2.09,0,0,1,.78.13,1,1,0,0,1-.08,1.94h0a1.76,1.76,0,0,1,.48.62l.6,1.07h-1l-.46-.86c-.19-.37-.32-.5-.41-.52h-.25v1.38h-.88Z"/><rect class="cls-1" x="121.31" y="41.81" width="0.88" height="3.77"/><path class="cls-1" d="M126.84,44l-.18-.52c-.09-.26-.13-.42-.16-.54h0a4.4,4.4,0,0,1-.18.54l-.19.52Zm-.72-2.19h.72l1.56,3.79h-.94l-.36-.9h-1.23l-.34.9h-.9Z"/></g></g></svg>