<?xml version="1.0" encoding="utf-8"?>
<!-- Generator: Adobe Illustrator 21.0.0, SVG Export Plug-In . SVG Version: 6.00 Build 0)  -->
<svg version="1.1" id="Capa_1" xmlns="http://www.w3.org/2000/svg" xmlns:xlink="http://www.w3.org/1999/xlink" x="0px" y="0px"
	 viewBox="0 0 51 55" style="enable-background:new 0 0 51 55;" xml:space="preserve">
<style type="text/css">
	.st0{fill:#999999;}
</style>
<path class="st0" d="M28.9,19.2L0.8,29.9v-8.2L28.9,9.1V19.2z M29.5,2l20.6,27.1v3.1l-20.6-24V2z M50.6,33.2V29L29.5,0.8h-0.7v7.4
	L0.4,21.4v9.1l28.5-10.6v10.7l21.3,12.2v5.2l-20.9-7.9l-0.1,0l-28.8,4v4.6l28.5-2.2l0.2,7.6h0.3l0.1-8.3L0.8,48.4l0-4.1l28.4-3.5
	l21.4,7.7v-5.8L29.5,30.2V19.9l13.4,12l0-0.3L29.5,19.2V9.1L50.6,33.2z"/>
</svg>
