<svg xmlns="http://www.w3.org/2000/svg" viewBox="0 0 120.37 37.66"><defs><style>.cls-1{fill:#666;}</style></defs><title>Recurso 6</title><g id="Capa_2" data-name="Capa 2"><g id="footer"><path class="cls-1" d="M20.12,13,.29,20.51v-5.8L20.12,5.83ZM20.59.79,35.18,20v2.19L20.59,5.2ZM35.46,22.88v-3L20.59,0h-.47V5.2L0,14.53v6.4l20.12-7.49V21l15.06,8.65v3.69L20.43,27.78l-.05,0L0,30.56v3.27l20.11-1.54.13,5.37h.2l.1-5.87L.29,33.61V30.72l20-2.47,15.14,5.43V29.61L20.59,20.76V13.44L30,21.88v-.22L20.59,13V5.83Z"/><path class="cls-1" d="M53.79,16.11l-2.18-2.85-.51-.67h0a7.63,7.63,0,0,1,0,.77v2.75H49.85V10.69h1.26l2.1,2.74c.17.22.33.43.49.66h0c0-.28,0-.67,0-.89V10.69H55v5.42Z"/><path class="cls-1" d="M59.29,15.21A2.39,2.39,0,0,1,59,14V10.69h1.26V14a1.4,1.4,0,0,0,.16.71,1.26,1.26,0,0,0,2,0,1.41,1.41,0,0,0,.16-.71V10.69h1.26V14a2.39,2.39,0,0,1-.26,1.18,2.84,2.84,0,0,1-4.29,0"/><polygon class="cls-1" points="67.91 10.69 71.17 10.69 70.85 11.75 69.17 11.75 69.17 12.85 70.87 12.85 70.87 13.91 69.17 13.91 69.17 15.05 71.15 15.05 71.15 16.11 67.91 16.11 67.91 10.69"/><path class="cls-1" d="M74.51,10.69h1.35l1,2.7c.15.38.27.73.38,1h0c.11-.31.23-.67.38-1l1-2.7h1.35l-2.23,5.46H76.74Z"/><path class="cls-1" d="M86.13,13.82l-.25-.75c-.12-.37-.19-.6-.23-.77h0a6.24,6.24,0,0,1-.25.78l-.27.74Zm-1-3.15h1l2.24,5.44H87l-.52-1.29H84.75l-.49,1.29H83Z"/><path class="cls-1" d="M54.39,25.2a3.78,3.78,0,0,1-1.87.46,2.58,2.58,0,0,1-2.84-2.74,2.8,2.8,0,0,1,3-2.82,3.89,3.89,0,0,1,1.48.25V21.5a3.07,3.07,0,0,0-1.45-.36A1.6,1.6,0,0,0,51,22.9a1.59,1.59,0,0,0,1.66,1.71,2.5,2.5,0,0,0,1.36-.4Z"/><path class="cls-1" d="M62.17,22.88c0-1.15-.6-1.73-1.46-1.73s-1.46.58-1.46,1.73.6,1.73,1.46,1.73,1.46-.58,1.46-1.73m-4.25,0a2.8,2.8,0,0,1,5.59,0,2.8,2.8,0,0,1-5.59,0"/><path class="cls-1" d="M67.64,24.2a2.18,2.18,0,0,0,1.25.41c.37,0,.77-.12.77-.48,0-.9-2.3-.78-2.3-2.45a1.67,1.67,0,0,1,1.87-1.59,3.28,3.28,0,0,1,1.43.3v1.13a3.13,3.13,0,0,0-1.39-.38c-.3,0-.57.11-.57.44,0,.84,2.3.71,2.3,2.45,0,1-.9,1.63-2.06,1.63a3.12,3.12,0,0,1-1.78-.51Z"/><polygon class="cls-1" points="76.37 21.22 74.79 21.22 74.79 20.16 79.34 20.16 79.02 21.22 77.63 21.22 77.63 25.57 76.37 25.57 76.37 21.22"/><path class="cls-1" d="M85.4,23.28l-.25-.75c-.12-.37-.19-.6-.23-.77h0a6.17,6.17,0,0,1-.25.78l-.27.74Zm-1-3.15h1l2.24,5.44H86.3l-.52-1.29H84l-.49,1.29H82.23Z"/><path class="cls-1" d="M95.09,25.57l-2.18-2.85L92.4,22h0a7.63,7.63,0,0,1,0,.77v2.75H91.15V20.16h1.26l2.1,2.74c.17.22.33.43.49.66h0c0-.28,0-.67,0-.89V20.16h1.26v5.42Z"/><polygon class="cls-1" points="100.37 20.16 103.62 20.16 103.3 21.22 101.62 21.22 101.62 22.31 103.33 22.31 103.33 23.37 101.62 23.37 101.62 24.51 103.61 24.51 103.61 25.57 100.37 25.57 100.37 20.16"/><path class="cls-1" d="M109.22,22.58a1,1,0,0,0,.49-.11.67.67,0,0,0,.33-.6.68.68,0,0,0-.38-.63,1,1,0,0,0-.44-.08h-.4v1.41Zm-1.65-2.43h1.74a3,3,0,0,1,1.12.18,1.48,1.48,0,0,1-.12,2.79v0a2.52,2.52,0,0,1,.69.9l.85,1.54h-1.43l-.66-1.23c-.28-.53-.46-.72-.58-.75h-.36v2h-1.26Z"/><path class="cls-1" d="M118.12,23.28l-.25-.75c-.12-.37-.19-.6-.23-.77h0a6.24,6.24,0,0,1-.25.78l-.27.74Zm-1-3.15h1l2.24,5.44H119l-.52-1.29h-1.76l-.49,1.29H115Z"/><rect class="cls-1" x="50.21" y="30.19" width="0.7" height="3.01"/><path class="cls-1" d="M54.9,33.2,53.8,31.75l-.26-.34h0a3.83,3.83,0,0,1,0,.39v1.4h-.64V30.45h.64l1.07,1.39.25.33h0c0-.14,0-.34,0-.45V30.45h.64V33.2Z"/><path class="cls-1" d="M57.58,30.45h.58l.69,1c.08.12.15.22.21.33h0a3.47,3.47,0,0,1,.2-.35l.62-.94h.58V33.2h-.64v-1.4c0-.1,0-.21,0-.3h0c0,.06-.14.22-.18.29l-.45.68h-.28l-.51-.7a2.46,2.46,0,0,1-.18-.27h0c0,.09,0,.2,0,.28V33.2h-.64Z"/><path class="cls-1" d="M64.6,31.83c0-.58-.3-.88-.74-.88s-.74.3-.74.88.3.88.74.88.74-.3.74-.88m-2.16,0a1.42,1.42,0,1,1,1.42,1.41,1.35,1.35,0,0,1-1.42-1.41"/><path class="cls-1" d="M68.17,32.68c.3,0,.44-.1.44-.33s-.14-.29-.38-.29h-.32v.61Zm-.07-1.13a.29.29,0,0,0,.33-.28c0-.16-.11-.3-.35-.3h-.18v.58Zm-.83-1.1h.92c.6,0,.86.35.86.7a.62.62,0,0,1-.31.55h0a.66.66,0,0,1,.5.66.89.89,0,0,1-1,.84h-1Z"/><rect class="cls-1" x="71.19" y="30.45" width="0.64" height="2.75"/><polygon class="cls-1" points="73.91 30.45 74.55 30.45 74.55 32.66 75.49 32.66 75.49 33.2 73.91 33.2 73.91 30.45"/><rect class="cls-1" x="77.33" y="30.45" width="0.64" height="2.75"/><path class="cls-1" d="M81.35,32l-.13-.38c-.06-.19-.1-.3-.12-.39h0a3.21,3.21,0,0,1-.13.4l-.14.38Zm-.53-1.6h.53l1.14,2.76h-.68l-.26-.65h-.89l-.25.65h-.66Z"/><path class="cls-1" d="M85.11,31.68a.49.49,0,0,0,.25-.05.34.34,0,0,0,.17-.3.34.34,0,0,0-.19-.32.49.49,0,0,0-.22,0h-.2v.72Zm-.84-1.23h.88a1.52,1.52,0,0,1,.57.09A.75.75,0,0,1,85.67,32h0a1.28,1.28,0,0,1,.35.45l.43.78h-.73l-.33-.63c-.14-.27-.23-.37-.3-.38h-.18v1h-.64Z"/><rect class="cls-1" x="88.33" y="30.45" width="0.64" height="2.75"/><path class="cls-1" d="M92.36,32l-.13-.38c-.06-.19-.1-.3-.12-.39h0a3.21,3.21,0,0,1-.13.4l-.14.38Zm-.53-1.6h.53L93.5,33.2h-.68l-.26-.65h-.89l-.25.65h-.66Z"/></g></g></svg>