<svg xmlns="http://www.w3.org/2000/svg" viewBox="0 0 401.9 773.45"><defs><style>.cls-1{fill:#efefef;}.cls-2{fill:none;stroke:#908065;stroke-miterlimit:10;stroke-width:1.25px;}.cls-3{font-size:17.48px;font-family:Roboto-Light, Roboto;}.cls-3,.cls-5{fill:#908065;}.cls-4{letter-spacing:-0.02em;}.cls-5{font-size:27.47px;font-family:Roboto-Regular, Roboto;}</style></defs><title>nc3300</title><g id="Capa_2" data-name="Capa 2"><g id="proyectos_ejecutados" data-name="proyectos ejecutados"><g id="Proyectos_en_venta" data-name="Proyectos en venta"><rect class="cls-1" width="401.9" height="773.45"/><rect class="cls-2" x="25.31" y="27.52" width="354.55" height="722.83"/><text class="cls-3" transform="translate(54.55 84.05)">Oficinas | Vitacu<tspan class="cls-4" x="122.9" y="0">r</tspan><tspan x="128.44" y="0">a</tspan></text><text class="cls-5" transform="translate(54.55 114.01)">NC 3300</text><polyline class="cls-2" points="88.14 129.27 221.94 129.27 221.94 80.58 197.69 80.58"/><text class="cls-3" transform="translate(293.51 668.31)">Oficinas</text><polyline class="cls-2" points="366.31 103.05 45.86 232.61 45.86 243.16 71.76 257.56 71.76 287.03 45.86 296.89 45.86 308.4 98.63 329.51 98.63 388.94 64.09 397.63 66.01 412.9 97.67 420.66 97.67 482.06 54.55 489.74 54.55 500.29 79.44 505.09 80.4 562.66 45.86 562.66 45.86 577.05 81.36 582.8 81.36 644.19 98.89 644.19 98.89 717.87"/><path class="cls-2" d="M45.86,308.41s267.68-93.07,270.56-92.11"/><line class="cls-2" x1="66.01" y1="412.9" x2="316.42" y2="344.5"/><line class="cls-2" x1="79.44" y1="505.09" x2="316.42" y2="465.45"/><line class="cls-2" x1="81.36" y1="582.8" x2="316.42" y2="557.26"/></g></g></g></svg>