<svg xmlns="http://www.w3.org/2000/svg" viewBox="0 0 20.41 16.69"><defs><style>.cls-1{fill:#908065;}</style></defs><title>Tw_icon</title><g id="Capa_2" data-name="Capa 2"><g id="footer"><path class="cls-1" d="M20.21,1.95a.46.46,0,0,0-.54,0,1.71,1.71,0,0,1-.46.22A2.18,2.18,0,0,0,19.83.75.46.46,0,0,0,19.1.41a4.06,4.06,0,0,1-2.21.76A4.38,4.38,0,0,0,9.56,4.91C5.52,4.81,2.25,1,2.22,1A.46.46,0,0,0,1.82.8.46.46,0,0,0,1.46,1a4.32,4.32,0,0,0,.1,4.58A.46.46,0,0,0,.88,6,4.19,4.19,0,0,0,2.54,9.6a.46.46,0,0,0-.27.56,4.13,4.13,0,0,0,3,2.89,6.2,6.2,0,0,1-3.55,1,7.32,7.32,0,0,1-1.14-.08.46.46,0,0,0-.36.82A10.71,10.71,0,0,0,6.6,16.69,12.51,12.51,0,0,0,9,16.47a11.65,11.65,0,0,0,9.38-11.7c1.7-1.56,2-2.17,2-2.32a.46.46,0,0,0-.18-.51ZM17.6,4.23a.46.46,0,0,0-.15.37,10.77,10.77,0,0,1-8.65,11,11.86,11.86,0,0,1-2.21.19,10.85,10.85,0,0,1-4.31-.83A6.22,6.22,0,0,0,6.6,13.06a.46.46,0,0,0-.35-.77,3.35,3.35,0,0,1-2.82-1.71,2.5,2.5,0,0,0,1.09-.18.46.46,0,0,0-.1-.87A3.42,3.42,0,0,1,1.86,6.82,2.27,2.27,0,0,0,3,7a.46.46,0,0,0,.23-.81C3.12,6.08,1.12,4.35,2,2.07c1.16,1.18,4.33,4,8.15,3.75a.46.46,0,0,0,.42-.58A3.46,3.46,0,0,1,13.91.93a3.43,3.43,0,0,1,2.47,1,.46.46,0,0,0,.32.14h.07a4.89,4.89,0,0,0,1.48-.24,6.77,6.77,0,0,1-.78.69.46.46,0,0,0,.32.83c.07,0,.4,0,.81-.11-.26.26-.58.58-1,1Zm0,0"/></g></g></svg>